<svg xmlns="http://www.w3.org/2000/svg" fill="#fff" width="672.1933" height="211.5595" viewBox="0 0 672.1933 211.5595">
  <path d="M272.1005,134.0123q0,12.4987-6.3506,18.3-6.3516,5.7986-19.45,5.8a53.9622,53.9622,0,0,1-9.35-.8,52.3463,52.3463,0,0,1-8.25-2.1l2.2-10.3a37.604,37.604,0,0,0,7.05,2.1,43.116,43.116,0,0,0,8.55.8q7.2993,0,10.4-3,3.0981-3,3.1-8.9v-2a31.4027,31.4027,0,0,1-4.75,1.8,23.1428,23.1428,0,0,1-6.75.9,25.2236,25.2236,0,0,1-9.1494-1.6,19.1548,19.1548,0,0,1-7.1006-4.7,21.4631,21.4631,0,0,1-4.6-7.75,32.0737,32.0737,0,0,1-1.65-10.75,30.4348,30.4348,0,0,1,1.75-10.5,22.4636,22.4636,0,0,1,5.1006-8.2,23.3287,23.3287,0,0,1,8.1494-5.3,29.4474,29.4474,0,0,1,10.9-1.9,66.8835,66.8835,0,0,1,11.2.9q5.2983.9,9,1.9Zm-33.7-22.2q0,7.7014,3.35,11.25a11.3563,11.3563,0,0,0,8.65,3.55,18.0866,18.0866,0,0,0,5.45-.8,15.5352,15.5352,0,0,0,4.1494-1.9v-27.1q-1.3008-.3-3.2-.55a38.056,38.056,0,0,0-4.8-.25q-6.5991,0-10.1,4.35Q238.3978,104.7125,238.4,111.8121Z"/>
  <path d="M287.5,139.3121v-75.6l12.1-2v25.9a32.6113,32.6113,0,0,1,4.65-1.2,28.2775,28.2775,0,0,1,5.25-.5,27.061,27.061,0,0,1,10.45,1.75,16.459,16.459,0,0,1,6.6494,4.9,19.0882,19.0882,0,0,1,3.55,7.55,42.2723,42.2723,0,0,1,1.0508,9.8v29.4H319.1v-27.5a39.8533,39.8533,0,0,0-.55-7.15,12.701,12.701,0,0,0-1.8-4.8,7.2334,7.2334,0,0,0-3.3506-2.7,13.9284,13.9284,0,0,0-5.1992-.85,24.9688,24.9688,0,0,0-4.9.5,34.0564,34.0564,0,0,0-3.7.9v41.6Z"/>
  <path d="M392.9989,113.1119a33.7543,33.7543,0,0,1-1.8,11.3,25.0124,25.0124,0,0,1-5.1006,8.7,22.9074,22.9074,0,0,1-7.9492,5.6,25.6854,25.6854,0,0,1-10.25,2,25.3146,25.3146,0,0,1-10.2-2,23.028,23.028,0,0,1-7.9-5.6,25.6145,25.6145,0,0,1-5.1494-8.7,32.9044,32.9044,0,0,1-1.8506-11.3,32.489,32.489,0,0,1,1.8506-11.25,25.2769,25.2769,0,0,1,5.1992-8.65,22.9743,22.9743,0,0,1,7.95-5.55,25.6054,25.6054,0,0,1,10.1006-1.95,25.9794,25.9794,0,0,1,10.1494,1.95,22.3712,22.3712,0,0,1,7.95,5.55,25.754,25.754,0,0,1,5.15,8.65A32.5363,32.5363,0,0,1,392.9989,113.1119Zm-12.4,0q0-7.8-3.35-12.35a11.8816,11.8816,0,0,0-18.7,0q-3.3516,4.5513-3.35,12.35,0,7.9014,3.35,12.5a11.8025,11.8025,0,0,0,18.7,0Q380.5975,121.0138,380.5985,113.1119Z"/>
  <path d="M418.5975,130.6119q4.8,0,7-1.15a4.0859,4.0859,0,0,0,2.2-3.95,5.1259,5.1259,0,0,0-2.35-4.3,34.5656,34.5656,0,0,0-7.75-3.7,61.2847,61.2847,0,0,1-6.0507-2.55,20.6172,20.6172,0,0,1-4.75-3.15,12.8988,12.8988,0,0,1-3.1495-4.35,15.1517,15.1517,0,0,1-1.15-6.25,13.633,13.633,0,0,1,5.3-11.35q5.3-4.1484,14.4-4.15a44.38,44.38,0,0,1,8.8.85,42.9881,42.9881,0,0,1,6.3,1.65l-2.1993,9.8a29.7254,29.7254,0,0,0-5.1006-1.65,30.8282,30.8282,0,0,0-7.2-.75,12.5418,12.5418,0,0,0-6,1.25,4.1044,4.1044,0,0,0-2.3,3.85,5.5535,5.5535,0,0,0,.45,2.3,4.9294,4.9294,0,0,0,1.55,1.85,15.7625,15.7625,0,0,0,2.9,1.7,44.4725,44.4725,0,0,0,4.3995,1.75,67.3646,67.3646,0,0,1,7.3007,3.15,19.7983,19.7983,0,0,1,4.9493,3.5,11.982,11.982,0,0,1,2.8505,4.45,17.7811,17.7811,0,0,1,.8995,6q0,7.5-5.55,11.35-5.55,3.8481-15.85,3.85a43.4415,43.4415,0,0,1-11.1005-1.15,57.0639,57.0639,0,0,1-5.8995-1.85l2.1-10.1a54.1256,54.1256,0,0,0,6.45,2.1A33.2288,33.2288,0,0,0,418.5975,130.6119Z"/>
  <path d="M450.5956,73.212l12.1006-2v15.8h18.6v10.1h-18.6v21.3q0,6.3,2,9t6.8,2.7a22.1286,22.1286,0,0,0,5.85-.7,39.2078,39.2078,0,0,0,4.0508-1.3l2,9.6a45.3593,45.3593,0,0,1-5.5,1.85,29.9475,29.9475,0,0,1-8,.95,25.319,25.319,0,0,1-9.3506-1.5,13.7847,13.7847,0,0,1-5.95-4.35,17.234,17.234,0,0,1-3.1-6.9,42.8923,42.8923,0,0,1-.9-9.25Z"/>
  <path d="M540.2958,139.3121q-3.4014-5.7-7.6-12.25-4.2012-6.5486-8.7-13.2-4.5-6.6489-9.15-12.9-4.6494-6.2483-8.85-11.25v49.6h-12.4v-69.3h10.3q3.999,4.2,8.6006,9.95,4.5981,5.7517,9.25,11.95,4.6494,6.2014,9,12.45,4.3491,6.2512,7.75,11.65v-46h12.5v69.3Z"/>
  <path d="M567.5946,139.3121v-69.3h43.8v10.7H580.1952v17.7h27.6992v10.7H580.1952v30.2Z"/>
  <path d="M672.1933,70.0123v10.9h-21.3v58.4h-12.7v-58.4h-21.3v-10.9Z"/>
  <path d="M92.2491,172.3675l-3.3186-.7643-1.6572-.3845-1.6319-.4793c-1.0848-.3279-2.1807-.6191-3.2547-.9761l-3.1926-1.1547a69.0173,69.0173,0,0,1-12.0813-6.0564,57.6718,57.6718,0,0,1-18.4684-19.2067,63.1589,63.1589,0,0,1-8.1806-25.28,62.4082,62.4082,0,0,1-.039-13.2951A44.19,44.19,0,0,1,42.8811,93.93a2.0187,2.0187,0,0,0-1.0681-2.5594h0a2.0377,2.0377,0,0,0-2.7545,1.1859,47.8716,47.8716,0,0,0-2.3429,11.8719,67.8238,67.8238,0,0,0,9.7666,40.2293,59.8119,59.8119,0,0,0,19.7146,19.3647,70.5419,70.5419,0,0,0,12.5377,5.8382L82.015,170.94c1.1014.3308,2.2222.5947,3.3314.8948l1.6672.4369,1.6888.3408,3.3765.6744s.3524.0351.4154-.399S92.2491,172.3675,92.2491,172.3675Z"/>
  <path d="M92.1145,176.977a4.01,4.01,0,0,1-.4022-.02l-.3562-.0528L86.08,175.84l-1.6673-.4363c-.4082-.11-.788-.2081-1.1677-.3065-.7664-.1977-1.5324-.3962-2.29-.6243l-.0928-.0288-3.3721-1.111a73.5956,73.5956,0,0,1-13.1918-6.1478,63.57,63.57,0,0,1-20.9464-20.5767A71.51,71.51,0,0,1,33.04,104.13a51.4254,51.4254,0,0,1,2.5349-12.7832A5.7194,5.7194,0,1,1,46.3289,95.24a40.5548,40.5548,0,0,0-2.2379,9.9322,58.87,58.87,0,0,0,.0416,12.5134,59.6684,59.6684,0,0,0,7.6915,23.79,54.0717,54.0717,0,0,0,17.2937,17.98,64.7,64.7,0,0,0,11.3773,5.7013l3.0991,1.12c.6295.2081,1.2675.3922,1.905.5763.4038.1169.808.2337,1.21.3554l1.5.441,5.0341,1.1662a4.1733,4.1733,0,0,1-1.1293,8.1608Z"/>
  <path d="M51.7624,72.2232A84.8353,84.8353,0,0,1,61.9156,62.15a65.8038,65.8038,0,0,1,11.9685-7.6864,57.1712,57.1712,0,0,1,13.3605-4.6725,58.6667,58.6667,0,0,1,14.06-1.2253,64.2587,64.2587,0,0,1,27.079,7.08,60.88,60.88,0,0,1,11.6441,7.7394,42.1572,42.1572,0,0,1,7.913,8.7659,2.0195,2.0195,0,0,0,2.713.6051h0a2.044,2.044,0,0,0,.6146-2.9411,45.9736,45.9736,0,0,0-8.8589-9.2939,64.3909,64.3909,0,0,0-12.553-7.858,67.1787,67.1787,0,0,0-28.5055-6.6263,60.9993,60.9993,0,0,0-14.58,1.6768,59.0991,59.0991,0,0,0-13.6724,5.2061A67.3492,67.3492,0,0,0,61.059,61.1272,85.946,85.946,0,0,0,51.0376,71.632s-.1456.2424.18.5184S51.7624,72.2232,51.7624,72.2232Z"/>
  <path d="M149.6178,76.7313A5.6921,5.6921,0,0,1,144.8743,74.2a38.318,38.318,0,0,0-7.2208-7.9928,57.2113,57.2113,0,0,0-10.9551-7.28,60.6725,60.6725,0,0,0-25.5178-6.6753A55.1109,55.1109,0,0,0,88.008,53.3989a53.4443,53.4443,0,0,0-12.49,4.3709A62.2049,62.2049,0,0,0,64.221,65.0286,80.4527,80.4527,0,0,0,54.5574,74.63l-.29.3a4.1827,4.1827,0,0,1-6.3912-5.1978l.3013-.429a88.9736,88.9736,0,0,1,10.454-10.9527A71.2775,71.2775,0,0,1,71.375,49.6586,62.6051,62.6051,0,0,1,101.37,42.3478a71.0979,71.0979,0,0,1,30.0809,6.9891,68.1853,68.1853,0,0,1,13.271,8.31,49.6723,49.6723,0,0,1,9.5543,10.0314,5.733,5.733,0,0,1-1.7376,8.2473A5.6968,5.6968,0,0,1,149.6178,76.7313Z"/>
  <path d="M160.4938,92.3118a67.1651,67.1651,0,0,1,2.3362,25.36A57.0841,57.0841,0,0,1,154.6388,141.5a64.0288,64.0288,0,0,1-17.228,18.3038,64.6835,64.6835,0,0,1-20.8052,9.9362,2.0185,2.0185,0,0,0-1.4233,2.4306h0a2.0395,2.0395,0,0,0,2.5822,1.46,68.3313,68.3313,0,0,0,21.6249-11.1525,66.9559,66.9559,0,0,0,17.4234-19.685,59.2221,59.2221,0,0,0,7.7419-24.96A68.4976,68.4976,0,0,0,161.39,92.0447a.4532.4532,0,0,0-.5634-.1966A.4209.4209,0,0,0,160.4938,92.3118Z"/>
  <path d="M117.1693,177.406a5.7144,5.7144,0,0,1-1.52-11.2279,61.3766,61.3766,0,0,0,19.6126-9.3711,60.698,60.698,0,0,0,16.2364-17.24,53.5377,53.5377,0,0,0,7.665-22.2911,63.3688,63.3688,0,0,0-2.2267-23.99l-.0676-.2922a4.17,4.17,0,0,1,7.8023-2.6333l.1493.2906.0956.3121a72.0364,72.0364,0,0,1,3.3141,27.1823,63.0035,63.0035,0,0,1-8.2225,26.4924A72.4679,72.4679,0,0,1,118.8329,177.16,5.7253,5.7253,0,0,1,117.1693,177.406Z"/>
  <path d="M182.57,140.7634a17.8876,17.8876,0,0,0-15.3505,27.3613,95.684,95.684,0,0,1-14.9742,14.1341,87.4453,87.4453,0,0,1-33.8181,15.7428,83.779,83.779,0,0,1-37.4738-.44c-11.4-2.6429-23.1507-7.974-34.9263-15.8455l-.103-.0666a4.6734,4.6734,0,0,0-5.3416,7.644l.11.0823c12.45,8.9955,25.1042,15.275,37.584,18.6558a96.2758,96.2758,0,0,0,24.9148,3.5241,92.8447,92.8447,0,0,0,17.6642-1.516,100.4736,100.4736,0,0,0,39.4844-16.66,110.1149,110.1149,0,0,0,19.0915-17.0621,17.9017,17.9017,0,1,0,3.1389-35.5537Z"/>
  <path d="M42.1775,158.2633A17.8754,17.8754,0,0,0,22.6206,147.25,92.72,92.72,0,0,1,16.96,80.8127,80.5438,80.5438,0,0,1,25.7937,61.457,83.8671,83.8671,0,0,1,39.4445,44.9507a102.8554,102.8554,0,0,1,17.339-13.019,139.9211,139.9211,0,0,1,19.9749-9.4724l.5851-.2272.4909-.3918a4.7413,4.7413,0,0,0,1.4886-5.3184,4.6031,4.6031,0,0,0-5.3616-2.9474l-.425.124A149.6717,149.6717,0,0,0,51.79,23.1844,113.5088,113.5088,0,0,0,32.1663,36.96a95.0261,95.0261,0,0,0-16.05,18.201A92.41,92.41,0,0,0,5.276,77.0307a103.271,103.271,0,0,0-4.1116,48.2729,105.1925,105.1925,0,0,0,9.16,30.1831,17.9016,17.9016,0,1,0,31.8535,2.7766Z"/>
  <path d="M97.9246,35.1754a18.0144,18.0144,0,0,0,4.3675.64,17.8832,17.8832,0,0,0,16.05-9.3058,94.0823,94.0823,0,0,1,52.712,31.32,85.4708,85.4708,0,0,1,17.7021,35.4092c2.93,12.0833,3.2236,25.659.8729,40.35l-.0495.5221a4.6339,4.6339,0,0,0,3.9115,4.6971,4.8654,4.8654,0,0,0,.6592.06,4.6752,4.6752,0,0,0,4.3292-2.6276l.2357-.4827.1029-.5265c3.1093-15.8911,3.2733-30.8085.495-44.3055a96.9344,96.9344,0,0,0-18.7113-40.82,106.9622,106.9622,0,0,0-34.75-28.72A108.4627,108.4627,0,0,0,119.47,11.804,18.1093,18.1093,0,0,0,118.21,9.0469,17.9018,17.9018,0,1,0,87.1022,26.7733,17.7844,17.7844,0,0,0,97.9246,35.1754Z"/>
</svg>
